PathFileType	4	(X/Y/Z)	Patient4_TMGait_0pt2_02_right_24.trc.trc
DataRate	CameraRate	NumFrames	NumMarkers	Units	OrigDataRate	OrigDataStartFrame	OrigNumFrames
45.307443365696	45.307443365696	5	33	mm	45.307443365696	1	       141
Frame#	Time	R.Midfoot.Superior			Sacral			L.Shoulder			Chest			R.Shoulder			Neck			R.ASIS			L.ASIS			R.Thigh.Superior			R.Thigh.Lateral			R.Thigh.Inferior			R.Patella			L.Thigh.Superior			L.Thigh.Lateral			L.Thigh.Inferior			L.Patella			L.Shank.Superior			L.Shank.Lateral			L.Shank.Inferior			R.Shank.Superior			R.Shank.Lateral			R.Shank.Inferior			R.Heel			R.Midfoot.Lateral			R.Toe			L.Heel			L.Midfoot.Lateral			L.Midfoot.Superior			L.Toe			L.Elbow			L.Wrist			R.Elbow			R.Wrist			
		X1	Y1	Z1	X2	Y2	Z2	X3	Y3	Z3	X4	Y4	Z4	X5	Y5	Z5	X6	Y6	Z6	X7	Y7	Z7	X8	Y8	Z8	X9	Y9	Z9	X10	Y10	Z10	X11	Y11	Z11	X12	Y12	Z12	X13	Y13	Z13	X14	Y14	Z14	X15	Y15	Z15	X16	Y16	Z16	X17	Y17	Z17	X18	Y18	Z18	X19	Y19	Z19	X20	Y20	Z20	X21	Y21	Z21	X22	Y22	Z22	X23	Y23	Z23	X24	Y24	Z24	X25	Y25	Z25	X26	Y26	Z26	X27	Y27	Z27	X28	Y28	Z28	X29	Y29	Z29	X30	Y30	Z30	X31	Y31	Z31	X32	Y32	Z32	X33	Y33	Z33	

1	52.810000000000	1050.001216095364	114.068953707169	592.723461676160	1009.380447422540	1020.820784890440	449.484770910798	1196.555539407856	1436.708096464547	252.356153402281	1308.126965039550	1361.331734509536	404.182981613130	1245.650564115308	1442.052036742658	581.200341180038	1189.880863049852	1500.114153130665	410.437249673869	1241.061624747583	943.465868758915	554.414840502525	1214.522418814693	962.552394073638	282.295073299049	1266.453732851277	735.741062007905	530.045053975285	1183.561545232136	632.933972840308	600.999107241025	1254.119000037573	569.945716262298	521.138117898108	1244.184940293056	466.567935711368	538.427878968530	1269.686928245737	760.126985599123	318.835108555914	1187.811251291812	634.709314874936	258.946477862833	1276.992896891987	564.556428449862	323.506463601617	1280.699634377703	493.470805314456	331.411617294436	1253.496442912776	420.121374647163	323.886288171645	1163.015803482766	305.817395129377	274.938181178114	1215.028246919049	193.959809231231	344.617546593870	1175.690220336735	399.292355583204	552.299764958382	1070.603431443916	343.992926978581	628.568693111001	1063.638404539023	234.421058561788	575.705404337210	869.361398848541	133.238344339935	571.180660339623	948.254660141787	90.398711724715	636.762658083034	1139.520969807976	35.055143777736	609.227634107576	1085.798140209871	39.327022441249	385.666394749524	1158.142270841432	36.936305574236	303.914797206202	1242.388120192188	97.083638666001	329.819270744355	1369.483644094276	45.186501691009	297.957039717581	1205.105050467352	1094.974829192623	110.846013997570	1340.094734002018	868.714254343994	117.982544322960	1367.674165910177	1113.073506416047	689.655377290204	1620.213759721798	1067.121068745558	635.725251888372	
2	52.832071428571	1051.874143085608	120.875853863437	589.465916619817	1009.197121057595	1018.211714263988	444.013715412020	1197.202127757364	1436.035145701272	250.454350290827	1306.955442177268	1360.121547969353	403.247816408229	1242.301854396015	1439.605703392687	580.083212520890	1188.944532515502	1498.593285481508	408.774862865815	1240.364057105385	942.366065989895	550.604084160429	1215.832274614460	961.289109792659	278.534796991939	1273.529951195587	737.971879681542	523.615694722995	1195.116173986946	632.302828165463	593.836123756397	1267.375386964659	571.931443018057	512.905622762028	1260.032527308692	466.764649111354	530.507054898497	1272.134995615283	758.646492475990	316.373875818440	1191.611071619675	632.852147359222	257.136197670711	1280.218875628000	563.233263572635	323.139253982595	1284.114327237340	491.813398684156	331.298265782116	1255.309087946570	418.161508155725	323.632359815333	1163.323018219030	305.264949942624	274.404600953728	1212.784663812739	192.901106025281	344.731918239923	1189.044558286463	399.858353299064	545.191460647041	1081.715519983416	349.862765300003	621.407361211372	1070.644588293885	240.468845231616	570.335492814260	873.661888782186	149.771678762728	565.273499863476	948.890305590828	103.685016666518	632.379984090961	1135.653530328081	34.784493899434	608.398808467023	1081.396382223122	39.335066405506	385.599387972842	1153.765560059748	36.934493344624	303.883396057792	1238.051199661896	96.996105300008	330.003743451390	1365.149236684371	44.908625611964	298.001970666957	1216.070917453695	1096.193964405624	107.534722980752	1364.019121447230	880.125528789966	117.361901489351	1349.735772120458	1104.114436502118	686.361946206352	1589.841718559183	1027.603356468486	642.872994629745	
3	52.854142857143	1054.062560768806	127.986392898282	585.747005758393	1008.974519947700	1015.423239722870	438.483961215467	1197.861693404999	1435.254628226250	248.670552123116	1305.766962106725	1358.739176568606	402.413921590135	1238.887092073665	1436.857965639936	579.094676168156	1188.019244308625	1496.904306745303	407.257121747012	1239.644788503124	941.117545247556	546.754436321910	1217.184694741789	959.940621098252	274.710107822312	1280.694185359331	740.308817343045	516.961703547923	1207.055371347960	631.754806193604	586.440759375935	1280.908797729855	574.148798005875	504.310829179038	1276.301968816071	467.118433727256	522.197095905427	1274.755661319250	757.103164654425	313.830637002168	1195.551820545816	630.844920289804	255.336204732026	1283.635353641517	561.802487364005	322.787213401896	1287.737700365410	490.013032708227	331.231031800500	1257.254497697346	416.071920267111	323.407092803947	1163.676233486439	304.671837414157	273.887452922009	1210.462732040535	191.781666195734	344.848978389214	1202.803486205623	400.557582168223	537.757815236396	1093.136935876489	355.962558564538	613.823928871966	1077.963112665708	246.716976455694	564.584167873817	878.214982512946	166.429983439834	558.951459486700	949.857212060150	117.161171594239	627.551635166210	1132.155923058434	34.979231527146	607.045644501316	1076.823144741722	39.357811549387	385.521780198625	1149.220862215353	36.932397311159	303.845659385075	1233.558097360331	96.900953501868	330.183616336440	1360.649097821724	44.605062528397	298.041019877990	1227.370857613142	1097.497850920223	104.284887571974	1388.608350061848	892.453545635118	116.858627744514	1330.845172135310	1094.924105115801	683.111578934282	1556.391060739130	987.602624123455	650.013106868034	
4	52.876214285714	1056.816557705271	135.080308420311	581.613040803464	1008.713157266817	1012.523813325909	433.080768821546	1198.547636552830	1434.382556218246	247.133425948143	1304.608279216589	1357.196163567138	401.780543486889	1235.491278445635	1433.827107804510	578.334003395247	1187.152365406503	1495.071522212510	406.009069433683	1238.926068433700	939.733932153199	543.013917867650	1218.554375936106	958.546439371745	270.959061211642	1287.678441625704	742.703962936781	510.312985220138	1219.001585364035	631.357065742299	579.084494324717	1294.257343817535	576.591663719225	495.651691313206	1292.473245728933	467.701985995654	513.777310219526	1277.478551323088	755.533825956800	311.282459374589	1199.490673669434	628.729575131109	253.607670291104	1287.119968871545	560.282832577148	322.461333842802	1291.439733035907	488.097756698410	331.212838123616	1259.252377991877	413.898587796701	323.216399042063	1164.034517724537	304.046072312060	273.403642863445	1208.092808901782	190.627731805917	344.959441723337	1216.585984663385	401.410282938920	530.253010184564	1104.576555560333	362.028233210101	606.047356905207	1085.551046101262	252.870201407859	558.610136552053	883.120645749334	182.307581112949	552.370843178197	951.461304833696	130.127100932361	622.371230748263	1129.613005754524	35.697185469893	605.114045491679	1072.172200562318	39.397847155719	385.432221452372	1144.602712413917	36.929553426693	303.799439312270	1229.003307089495	96.799714156738	330.348245005909	1356.076822908098	44.280979114536	298.070140091476	1238.736589168912	1098.925387576831	101.241607064685	1413.174523921294	905.672071387860	116.546646183279	1311.246543419838	1085.875748724185	680.071652552785	1519.891148892581	948.720882859779	656.814107499587	
5	52.898285714286	1060.472587743584	141.773884203325	577.172540588542	1008.423270257547	1009.597796135148	427.946655661443	1199.299120244481	1433.456653886841	245.947439937426	1303.525805621473	1355.527528534831	401.440784893972	1232.171282546652	1430.563253016400	577.879993873931	1186.387647454059	1493.140108159277	405.129234566775	1238.225891760807	938.250879028451	539.514581682016	1219.924246982983	957.153630379482	267.404348706803	1294.245657591524	745.113811488833	503.905305517411	1230.591343139337	631.169587756389	572.050944207136	1307.008470118823	579.236227831803	487.260608669529	1308.080861184187	468.581646780924	505.576654064345	1280.208708192805	753.967896616019	308.803797828791	1203.274629547181	626.561465568549	251.988458295614	1290.520288056745	558.699511919897	322.161839088943	1295.051692013218	486.104296108051	331.235425526200	1261.189133883319	411.696795431214	323.054291649021	1164.329874173401	303.396228441911	272.959572054021	1205.680043362621	189.468097260355	345.052411225287	1230.069411646817	402.423337424630	522.965449071956	1115.814280594967	367.754178071074	598.354706801409	1093.446742204699	258.589820419655	552.614749506201	888.565196073315	196.445155259683	545.732580339389	954.084998287198	141.824861947191	616.988315212762	1128.712197727858	36.913377704136	602.633016818183	1067.511770549486	39.455203911596	385.330114133776	1139.980184169615	36.925292745618	303.742844884558	1224.454353014963	96.694356727597	330.487903222146	1351.500246300810	43.943939907101	298.085864438352	1249.978481491614	1100.544487972599	98.511274477354	1437.160589022563	919.793066508850	116.480247218854	1291.081991691444	1077.350624266466	677.396812912930	1480.449583563848	912.437119424624	662.973318081900	
